<svg version="1.1" id="Layer_1" xmlns="http://www.w3.org/2000/svg" xmlns:xlink="http://www.w3.org/1999/xlink" x="0px" y="0px"
	 width="100%" viewBox="0 0 1024 1024" enable-background="new 0 0 1024 1024" xml:space="preserve">
<path fill="#000000" opacity="1.000000" stroke="none" 
	d="
M770.973022,253.028183 
	C775.492004,252.369415 779.506226,250.242218 783.672119,248.587143 
	C792.888000,244.925705 802.478210,242.971710 812.300171,241.973480 
	C817.050110,241.490707 820.409424,242.675995 822.558899,247.677292 
	C825.084412,253.553345 826.659241,259.171692 824.905762,265.540314 
	C824.164734,268.231720 824.345825,271.163208 823.899658,273.952271 
	C822.629578,281.892731 816.366577,284.714081 809.722168,280.374481 
	C808.165771,279.357941 806.608215,278.463348 804.784058,278.464386 
	C803.047363,278.947418 803.568787,281.337280 801.565308,281.728485 
	C799.960632,281.888031 799.109009,280.473419 798.371948,279.255981 
	C795.954590,275.263031 792.450745,274.505005 788.511780,276.175171 
	C781.755676,279.039856 775.639709,282.262512 772.032410,289.683289 
	C768.322998,297.313995 761.654419,302.499878 752.931763,304.349182 
	C749.553101,305.065521 747.129761,304.082520 745.433716,300.984497 
	C740.584412,292.126709 733.783508,286.209808 723.057800,285.852661 
	C719.644287,285.739014 716.276855,284.675903 713.003418,282.758423 
	C711.732056,286.526642 712.060425,289.633362 714.112061,292.532013 
	C720.925781,302.158905 723.391602,312.956696 723.298401,324.624054 
	C723.135986,344.955292 723.339417,365.289398 723.201416,385.620972 
	C723.177124,389.202423 724.260010,391.412659 727.401550,393.274628 
	C734.168518,397.285492 739.927246,402.616852 745.497986,408.156647 
	C754.429321,417.038330 760.349121,427.818451 765.211670,439.240814 
	C767.440735,444.477173 771.564026,448.943665 770.664185,456.564758 
	C772.146362,454.774048 772.677856,454.432465 772.695862,454.065765 
	C773.053589,446.755371 773.712158,446.129944 781.432190,445.938263 
	C783.597107,445.884552 785.776917,445.961517 787.923706,445.732727 
	C794.911316,444.988098 797.752563,442.059906 797.840149,435.018799 
	C797.903320,429.942261 799.519104,425.679169 802.634277,421.708771 
	C806.293335,417.045044 805.166016,411.159088 805.783630,405.817810 
	C806.302185,401.333160 806.145813,397.091278 809.490479,393.302826 
	C812.063049,390.389008 811.447388,386.273193 810.535645,382.715759 
	C809.227661,377.612122 811.922791,374.233459 815.397461,371.739441 
	C821.229858,367.553162 823.249390,358.474823 818.789612,352.705658 
	C816.852905,350.200287 814.831665,347.496216 813.664307,344.835693 
	C811.736328,340.441681 812.439697,335.355957 815.175964,331.154297 
	C817.067139,328.250275 818.288513,326.531311 814.948486,323.240814 
	C812.135559,320.469727 812.917053,315.434540 812.465881,311.341980 
	C812.370728,310.479065 813.008911,309.767273 813.963440,309.646240 
	C815.196533,309.489899 815.856628,310.338257 816.112854,311.317932 
	C816.784851,313.887787 817.259338,316.508911 817.911560,319.084534 
	C818.295410,320.600586 817.658630,322.505463 819.636230,323.650269 
	C822.730469,320.555908 823.020630,316.676025 823.051575,312.634155 
	C823.117554,304.025787 827.862610,301.129333 835.364380,305.378967 
	C839.615601,307.787292 843.850891,309.003235 848.697693,308.213135 
	C849.969971,308.005707 851.418762,308.103546 852.642395,308.502869 
	C860.387207,311.030518 868.319397,311.536560 876.359863,310.860870 
	C881.298096,310.445892 884.640198,312.558868 886.876953,316.857544 
	C889.567566,322.028351 892.516663,327.069489 895.072998,332.303894 
	C897.493103,337.259430 900.903015,341.095398 905.654358,343.927673 
	C916.064148,350.132874 917.561523,354.403229 914.336365,365.867432 
	C907.084473,391.644928 891.813538,411.178925 868.968872,424.981171 
	C858.703796,431.183167 848.541260,437.555542 838.364380,443.902252 
	C836.326477,445.173096 834.043884,446.074341 834.496887,449.524109 
	C834.832703,452.081451 832.161011,452.020691 830.420654,451.699432 
	C826.984192,451.065063 824.342407,452.442444 821.572937,454.182617 
	C806.060791,463.929565 790.495544,473.592590 774.895325,483.198120 
	C772.965881,484.386169 771.316528,485.484650 770.951599,487.941284 
	C769.173523,499.910583 765.328674,511.208527 759.769531,521.941406 
	C759.650085,522.172119 759.838989,522.562500 759.923340,523.153748 
	C768.593567,521.800659 777.226562,520.236267 785.919067,519.145935 
	C800.255554,517.347595 814.451965,514.414734 829.112671,515.657104 
	C868.189697,518.968506 902.945435,546.789368 914.247864,584.289307 
	C919.876160,602.963196 919.974243,624.713806 914.527466,641.126282 
	C913.808899,643.291260 913.051758,645.406677 910.576660,648.027039 
	C910.817566,638.827759 901.897217,635.791016 900.532959,628.224243 
	C899.806702,624.196045 897.739502,620.526489 898.684265,616.101990 
	C899.426575,612.625610 897.601013,611.456360 894.296814,613.110291 
	C892.942749,613.788025 891.317261,614.631653 890.387329,612.790894 
	C889.476318,610.987549 891.285095,610.216736 892.390747,609.298157 
	C892.901123,608.874146 893.497375,608.555359 894.036072,608.163452 
	C898.166443,605.158936 897.802734,604.073242 893.871338,600.846191 
	C885.457703,593.939941 875.257507,592.503296 865.183228,590.307190 
	C855.348267,588.163208 846.923218,582.842651 839.862061,576.016907 
	C832.185608,568.596497 824.490417,561.318726 815.737915,555.179626 
	C812.019958,552.571777 809.330811,548.882935 806.538269,545.379028 
	C803.871521,542.033020 800.598145,540.336121 796.359253,539.850586 
	C791.904419,539.340393 787.515869,538.273376 783.084106,537.535400 
	C777.824097,536.659485 773.289734,534.347107 769.413879,530.745850 
	C767.772095,529.220398 765.981079,528.227966 763.729004,527.885071 
	C761.650330,527.568420 759.770691,527.327332 758.427734,529.442749 
	C757.192017,531.389282 757.467346,533.258972 758.557312,535.092773 
	C760.791931,538.852295 763.958069,541.847351 766.880432,545.033752 
	C781.069580,560.504822 795.113953,576.113831 809.550171,591.351257 
	C819.658752,602.020813 821.596130,613.490906 814.734985,626.289062 
	C815.236694,628.333679 817.714539,627.133728 818.331848,629.022888 
	C818.282166,629.287292 818.263123,630.140503 818.095886,630.170654 
	C809.483337,631.722046 802.093994,637.418457 792.994873,637.404114 
	C784.392578,637.390503 777.511169,634.075745 772.162598,627.424622 
	C757.232056,608.858032 742.305725,590.288086 727.376282,571.720703 
	C726.562256,570.708191 725.940491,569.463928 724.461060,569.115662 
	C722.526062,570.730774 723.265137,572.877747 723.259094,574.731018 
	C723.193726,594.730164 723.211670,614.729553 723.220825,634.728882 
	C723.223816,641.184265 723.242493,641.188110 729.868896,641.359802 
	C730.772034,641.383240 731.486572,641.639587 731.770996,642.596924 
	C731.504333,644.380066 729.932800,644.521851 728.732727,644.596802 
	C723.743408,644.908081 723.102295,647.912170 723.203735,652.140503 
	C723.330933,657.439392 723.688110,662.778748 722.443176,668.062561 
	C719.554138,680.323975 709.622986,688.896240 697.053528,688.864624 
	C650.728516,688.748169 604.399902,689.566101 558.079651,688.430664 
	C554.632751,688.346191 553.251038,689.439087 553.281128,692.943420 
	C553.421204,709.262817 553.476685,725.583618 553.402771,741.903259 
	C553.393250,744.005310 555.315674,744.433167 555.892212,745.947144 
	C546.701416,749.798828 538.152954,756.727051 526.201965,751.045776 
	C537.874939,742.230896 534.395142,730.006897 534.579163,718.495911 
	C538.122864,724.791138 536.442993,732.112488 539.126831,738.509766 
	C540.296753,730.741577 538.659546,723.100891 538.299805,715.424500 
	C537.840332,705.620605 536.432922,695.871033 536.659973,686.021362 
	C536.735291,682.752563 537.150879,680.222107 541.265137,679.682129 
	C544.483215,679.259766 545.769653,676.641418 546.042542,673.501831 
	C546.769226,665.142029 545.411926,656.886658 544.827759,648.597168 
	C543.938538,635.978455 542.820496,623.376099 541.901611,610.759277 
	C540.746765,594.901978 520.754700,585.087952 506.084625,592.966125 
	C503.081543,594.578857 499.893524,594.037170 496.778412,593.744263 
	C488.657715,592.980713 480.839172,592.816467 472.653564,595.163391 
	C465.126221,597.321655 456.819641,596.671509 448.883362,597.513184 
	C432.349945,599.266663 415.841034,601.251953 399.307129,603.000427 
	C394.617859,603.496338 390.199158,602.450195 385.719727,600.614807 
	C378.341766,597.591797 370.244507,599.118958 362.500092,598.143005 
	C357.575226,597.522339 352.515167,597.987244 347.515961,597.938538 
	C344.787231,597.911987 342.511597,598.795410 340.059052,600.163208 
	C334.509644,603.258301 328.199585,602.876526 322.104736,602.434937 
	C315.085510,601.926331 308.215698,601.435364 301.477448,604.372253 
	C293.371246,607.905334 288.062927,613.556519 284.906982,621.947937 
	C280.707336,633.114502 279.565338,644.132996 280.849060,656.128845 
	C282.549713,672.020874 279.536163,688.011047 278.658844,703.963501 
	C278.066895,714.727600 276.986115,725.464783 276.727539,736.277283 
	C279.282898,717.498840 279.506927,698.430664 283.179962,679.003174 
	C292.730896,685.760376 302.107880,690.721191 307.014862,701.032043 
	C309.187225,705.596741 314.177216,707.855042 318.910339,709.691284 
	C330.749084,714.284363 337.802307,722.821960 340.176239,735.274536 
	C341.168640,740.480408 341.358582,745.828735 343.303680,751.035034 
	C339.899841,752.862732 336.440552,753.051392 332.986206,753.067200 
	C314.987213,753.149475 296.987610,753.272278 278.989014,753.194214 
	C268.791901,753.149963 262.777191,747.249390 262.655212,737.119812 
	C262.487000,723.149597 262.637543,709.175720 262.618744,695.203369 
	C262.610901,689.357788 261.466187,688.355652 255.512650,688.534729 
	C249.353531,688.720032 243.192123,688.948120 237.031693,688.949158 
	C218.165802,688.952393 207.183365,678.223877 207.032104,659.249329 
	C206.858093,637.418762 207.054550,615.585449 207.053543,593.753296 
	C207.051926,559.254578 207.020752,524.755859 206.997955,490.257111 
	C206.996841,488.590668 207.070923,486.912598 206.904343,485.260712 
	C206.698975,483.224304 207.611816,480.498322 204.930435,479.615723 
	C202.750183,478.898071 200.938248,480.569702 199.008698,481.582062 
	C190.044769,486.285004 187.318008,494.823883 184.919571,503.665741 
	C184.468369,505.329132 184.712723,507.453461 182.282166,508.528534 
	C178.808670,503.638977 175.586395,506.095825 172.264771,509.082794 
	C170.664185,510.522156 168.777954,511.643402 167.024200,512.913025 
	C163.960037,515.131226 160.935272,514.969910 157.695938,513.117798 
	C148.735565,507.994568 137.566879,511.760712 134.843414,521.573914 
	C132.511566,529.976135 130.544922,538.581909 131.812134,547.619019 
	C134.120728,564.082581 135.513870,580.667053 139.996948,596.788940 
	C141.956238,603.834778 144.471268,610.308777 149.955856,615.437317 
	C155.684479,620.794006 155.898315,628.422668 156.739288,635.357239 
	C158.193619,647.349121 162.170425,657.330627 170.973206,666.262207 
	C179.770950,675.188599 187.874191,685.005798 195.295944,695.265442 
	C197.700943,698.590088 201.017960,701.241150 203.764374,704.336426 
	C206.972366,707.951843 206.386139,710.103638 201.966980,711.714050 
	C194.225235,714.535278 192.469910,718.864502 196.171539,726.341736 
	C198.928375,731.910461 200.916748,737.576233 201.323227,743.925537 
	C201.701599,749.835754 203.572495,755.370117 209.504776,758.464966 
	C210.912201,759.199158 212.335342,760.324280 212.245346,762.232727 
	C211.512177,764.252808 209.217209,763.541870 207.951401,764.956421 
	C209.072876,770.850708 215.338043,771.522034 218.648727,775.395203 
	C212.088501,772.265991 205.446228,769.513611 199.650269,765.118042 
	C175.224350,746.593628 163.224319,721.599976 161.171646,691.406616 
	C161.115204,690.576294 161.077072,689.740356 161.104767,688.909485 
	C161.440781,678.830750 161.353500,679.055725 152.262238,675.380432 
	C116.273705,660.831543 95.294243,634.249451 89.791481,595.853271 
	C83.654060,553.028625 109.168091,508.156464 154.270065,491.630066 
	C164.746658,487.791199 175.104721,483.619934 185.643143,479.964325 
	C188.656174,478.919159 189.674667,476.164337 191.924072,474.545349 
	C197.080963,477.675934 201.528198,474.537048 205.252121,472.189911 
	C208.950256,469.858948 206.501389,465.203583 206.712692,461.217072 
	C202.241501,461.656738 202.045944,467.482513 197.144470,467.930878 
	C197.227081,462.651672 200.888184,459.821747 203.775574,457.243561 
	C206.257889,455.026978 206.914352,452.942047 206.914658,449.991913 
	C206.916901,428.659576 206.751617,407.323273 207.103210,385.995880 
	C207.531082,360.042816 224.479996,340.379944 249.630402,336.100311 
	C251.911545,335.712189 254.273254,335.680511 256.597565,335.680115 
	C321.928925,335.669403 387.260284,335.695801 452.591644,335.684143 
	C464.999359,335.681915 464.797607,337.201508 464.587036,323.380829 
	C464.463043,315.245453 465.554840,307.440002 469.186279,300.099274 
	C477.931671,282.421051 492.513123,273.196381 511.893951,272.918732 
	C547.218994,272.412598 582.556763,272.700714 617.888489,272.835724 
	C626.251038,272.867706 634.471741,273.016022 641.951233,268.379883 
	C643.370239,267.500305 645.093933,266.350433 646.894348,267.304688 
	C648.379150,268.882782 646.167358,270.238129 647.065491,271.874542 
	C649.114441,273.454681 651.705627,272.635559 654.114929,272.744995 
	C665.551758,273.264496 677.139893,271.337646 688.387390,274.820618 
	C691.239990,275.703979 694.329102,276.379120 696.743042,277.995758 
	C700.537415,280.536896 703.962585,280.360687 707.959167,278.719696 
	C728.752380,270.182068 749.607605,261.795502 770.720825,253.177765 
	C771.000366,252.999191 770.973022,253.028183 770.973022,253.028183 
M493.319122,460.869751 
	C485.066772,463.206116 476.647339,463.704346 468.129517,463.199036 
	C461.551636,462.808777 455.564423,458.886414 449.457001,458.484161 
	C435.909851,457.591980 422.116272,456.579590 408.637787,459.718842 
	C401.850159,461.299713 395.083038,460.670929 388.268402,460.777466 
	C369.104614,461.077087 349.477264,459.234009 332.611938,471.644073 
	C330.513458,473.188232 327.840637,473.987732 325.375824,474.989197 
	C322.135986,476.305450 318.829926,477.457642 315.567383,478.719238 
	C304.409210,483.033844 294.208252,489.413361 282.896667,493.506409 
	C277.514130,495.454041 273.031128,499.645081 269.708374,504.643860 
	C253.892990,528.436462 251.028397,555.051941 252.625275,582.663696 
	C252.971436,588.649109 253.393188,594.899475 249.785187,600.029419 
	C246.909180,604.118652 245.803040,608.319397 245.904495,613.117310 
	C246.028412,618.977417 247.476471,624.659363 248.096420,630.438782 
	C248.861557,637.571777 252.983688,640.859802 259.602448,642.015259 
	C261.559113,640.215515 261.648163,637.782959 261.726135,635.530762 
	C262.095215,624.877808 262.840729,614.199280 262.449615,603.566772 
	C261.714233,583.574280 262.170685,563.587341 262.012665,543.600159 
	C261.893768,528.567017 271.473267,518.268799 286.342438,518.132874 
	C318.665192,517.837341 350.997681,517.830200 383.317383,518.305603 
	C400.046936,518.551636 408.801331,528.321411 408.935059,545.048706 
	C408.999054,553.056213 408.999115,553.041138 416.999939,553.078857 
	C452.820404,553.247742 488.641296,553.361023 524.461060,553.629028 
	C541.558411,553.756897 553.290771,565.670410 553.340454,582.711304 
	C553.398315,602.540161 553.314819,622.369629 553.399414,642.198303 
	C553.437744,651.189026 552.897522,660.195129 553.881409,669.169067 
	C554.420105,674.081787 556.475220,675.132812 560.865723,672.587891 
	C563.747925,670.917236 566.528809,669.174194 569.796387,668.209961 
	C575.841797,666.426147 581.998840,664.835083 586.771484,660.213989 
	C588.933838,658.120239 591.823547,657.780151 594.733093,657.994812 
	C604.536377,658.718079 614.285095,659.075684 623.922791,656.303894 
	C626.242798,655.636597 628.894897,656.171814 631.388672,656.044861 
	C633.206726,655.952332 635.261230,656.172729 636.789429,655.410034 
	C648.036621,649.796753 659.828247,645.079102 669.387695,636.562317 
	C670.968811,635.153748 672.804443,634.627075 674.740112,634.081604 
	C682.636780,631.856567 690.786316,629.879395 690.603882,619.043335 
	C690.586914,618.037476 690.813293,616.645142 693.017273,616.155273 
	C696.351990,631.947876 695.486328,648.183350 698.133850,663.965393 
	C699.499451,659.239929 692.610718,574.349792 690.815430,571.151978 
	C689.186829,574.432983 691.072083,578.017090 690.008728,581.163574 
	C688.098816,580.931519 687.331482,579.785095 687.334961,578.725037 
	C687.352356,573.446655 683.490356,572.737427 679.673828,571.992615 
	C677.885254,571.643555 676.048523,571.402039 674.229248,571.371338 
	C660.023865,571.131470 646.591431,567.799927 633.662292,561.927979 
	C596.072144,544.856018 572.836487,501.703308 579.384216,460.835480 
	C579.910767,457.548981 580.318176,454.243378 580.779175,450.946411 
	C581.370728,446.716064 579.706604,444.740051 575.264221,444.862732 
	C569.567139,445.019989 564.612793,447.070801 559.744141,449.805542 
	C552.636230,453.798065 545.506104,458.551025 537.488708,459.625336 
	C528.492737,460.830780 519.097168,460.704132 510.085144,459.537567 
	C504.431763,458.805756 499.334290,458.770630 493.319122,460.869751 
M623.743164,423.248352 
	C610.469421,437.014740 602.810669,453.507751 602.461792,472.545990 
	C601.576233,520.862732 645.148132,555.859863 691.701294,545.019470 
	C729.782532,536.151855 754.652466,497.099548 746.003052,459.337067 
	C733.145203,403.200470 666.847839,383.276428 623.743164,423.248352 
M663.272705,374.178925 
	C657.566101,367.195160 649.889160,364.477203 641.199707,364.387482 
	C627.370544,364.244629 613.539001,364.340302 599.708435,364.340942 
	C496.562500,364.345551 393.416565,364.339844 290.270630,364.369171 
	C273.709259,364.373901 263.107635,373.706879 261.118195,389.819672 
	C260.100189,398.064636 260.547760,398.628754 269.052155,398.631287 
	C381.196136,398.664795 493.340149,398.669281 605.484131,398.733246 
	C609.481934,398.735535 612.867981,397.713562 616.170898,395.376526 
	C629.707153,385.798676 644.492981,379.300018 661.227966,377.857452 
	C662.989624,377.705597 665.422180,377.768036 663.272705,374.178925 
M242.568298,538.085205 
	C243.246841,528.482239 243.925369,518.879333 244.603912,509.276367 
	C240.712341,551.761230 236.019821,594.172913 234.143326,636.801392 
	C236.666977,620.539185 237.438995,604.122925 238.739319,587.755310 
	C240.029861,571.510742 241.210861,555.257385 242.568298,538.085205 
M290.975098,592.163208 
	C287.285278,593.521301 286.173737,594.814575 290.316742,597.519531 
	C294.745789,600.411316 299.139130,600.388916 303.842346,599.307678 
	C304.244385,592.079529 300.265656,589.769104 290.975098,592.163208 
M276.254486,603.832214 
	C274.680481,606.261475 275.457733,608.976440 275.352875,611.575439 
	C275.310394,612.628357 275.893036,613.533447 276.915649,613.887390 
	C278.031311,614.273499 278.930725,613.669739 279.302490,612.676941 
	C281.241608,607.499023 283.677124,602.458862 284.390869,596.454102 
	C279.975586,597.172791 278.548981,600.474792 276.254486,603.832214 
z"/>
<path fill="#000000" opacity="1.000000" stroke="none" 
	d="
M320.609070,226.669525 
	C337.687500,204.707184 372.542694,208.668945 383.648590,233.797409 
	C386.080750,239.300491 388.216309,244.134079 394.336365,246.315186 
	C396.243500,246.994873 398.674255,248.311722 398.431946,251.328903 
	C395.962189,252.987625 394.797089,250.594864 393.260529,249.701065 
	C389.549408,247.542343 387.970612,248.012573 387.506439,252.167419 
	C385.922913,266.341888 378.961029,276.732727 366.317169,283.356812 
	C365.176636,283.954346 364.161652,284.900604 363.288361,285.865875 
	C362.545227,286.687286 362.554169,288.112061 360.863708,288.669678 
	C358.165741,286.372070 354.689209,287.066620 351.247406,287.026825 
	C336.476257,286.855865 324.540588,281.051514 317.463104,267.808655 
	C309.992188,253.829727 310.916931,239.966431 320.609070,226.669525 
z"/>
<path fill="#000000" opacity="1.000000" stroke="none" 
	d="
M365.529297,715.392395 
	C363.697266,717.019409 362.156036,716.782349 360.988037,715.205750 
	C359.650024,713.399780 361.115356,712.129028 362.186340,710.877686 
	C372.155975,699.228760 385.314209,693.565918 400.107941,692.024597 
	C418.370392,690.121948 435.140839,694.394531 449.310486,706.732666 
	C450.685730,707.930115 451.996338,709.230835 453.167023,710.626160 
	C454.397736,712.093018 456.290955,713.673218 453.905243,715.653503 
	C451.683167,717.497925 450.263947,715.751953 448.882812,714.286499 
	C437.416565,702.120544 422.956543,697.075256 406.647705,697.387695 
	C390.732880,697.692505 376.684357,702.984558 365.529297,715.392395 
z"/>
<path fill="#000000" opacity="1.000000" stroke="none" 
	d="
M683.746704,721.675903 
	C689.303345,720.694946 694.468811,720.822266 699.617004,720.958313 
	C706.634216,721.143677 713.562500,720.863831 720.336304,718.735840 
	C723.562683,717.722229 726.945557,717.593079 730.187195,718.600708 
	C735.678711,720.307678 741.373840,719.611938 747.023499,720.663696 
	C720.119629,726.571289 692.853149,729.543579 665.361267,731.614197 
	C670.771851,726.953613 675.244324,720.984619 683.746704,721.675903 
z"/>
<path fill="#000000" opacity="1.000000" stroke="none" 
	d="
M450.572662,643.193298 
	C456.026245,648.497986 457.184662,653.741760 454.344452,659.059387 
	C451.786346,663.848755 446.622986,666.475220 441.451447,665.569031 
	C435.976227,664.609619 432.467194,661.401978 431.144470,656.031067 
	C429.970581,651.264343 431.279236,647.006042 435.029297,643.897095 
	C439.759399,639.975708 444.959412,639.627014 450.572662,643.193298 
z"/>
<path fill="#000000" opacity="1.000000" stroke="none" 
	d="
M377.545837,641.999695 
	C383.822418,646.140137 386.079224,651.037903 384.443756,656.356567 
	C382.645660,662.204102 377.702911,665.864624 371.812775,665.710815 
	C366.160370,665.563171 361.439240,661.657410 360.073639,655.918396 
	C359.023010,651.503174 360.193848,647.567017 363.391449,644.492859 
	C367.320221,640.715820 371.997345,639.655701 377.545837,641.999695 
z"/>
<path fill="#000000" opacity="1.000000" stroke="none" 
	d="
M310.635498,626.750427 
	C306.834534,628.339966 303.466705,628.271362 300.143402,626.554016 
	C298.782288,625.850586 297.631714,624.955688 296.899933,623.564270 
	C293.614929,617.318420 300.170624,606.828247 307.176331,606.859924 
	C314.012085,606.890808 318.742767,610.466003 322.764374,615.419800 
	C324.658630,617.753113 323.809326,619.755920 321.699921,621.426208 
	C318.524506,623.940552 314.984344,625.725281 310.635498,626.750427 
z"/>
<path fill="#000000" opacity="1.000000" stroke="none" 
	d="
M302.866638,776.122192 
	C308.862976,777.564758 314.155823,775.649414 319.531494,774.766235 
	C322.940125,774.206299 326.324982,773.551941 330.939728,776.538452 
	C307.240631,779.465210 285.350708,785.477173 262.443268,784.446167 
	C268.223145,780.107178 275.158051,778.639954 281.494141,775.825623 
	C288.704315,772.622925 295.487183,774.544495 302.866638,776.122192 
z"/>
<path fill="#000000" opacity="1.000000" stroke="none" 
	d="
M533.089478,644.271729 
	C532.292969,636.617981 531.764465,629.336914 530.783630,622.117249 
	C529.819519,615.020691 525.667908,610.102051 519.372681,606.754333 
	C517.306946,605.655823 514.561646,605.221069 513.571777,602.498962 
	C521.310791,599.925415 526.528320,602.111023 529.015625,609.289368 
	C530.623657,613.930176 532.916626,618.064148 536.181763,621.682922 
	C537.196899,622.807922 538.235046,623.946838 538.478882,625.462219 
	C539.774109,633.510681 536.847778,640.923584 535.761719,649.019897 
	C533.297119,647.687073 533.715271,645.955139 533.089478,644.271729 
z"/>
<path fill="#000000" opacity="1.000000" stroke="none" 
	d="
M794.288574,713.242188 
	C801.207458,711.985291 807.483215,709.316223 814.293518,709.969727 
	C815.392212,710.075195 816.476746,710.327759 817.594666,711.049866 
	C807.883667,714.253601 797.809143,714.672363 786.401184,715.652588 
	C789.463135,713.549316 791.861511,714.023315 794.288574,713.242188 
z"/>
<path fill="#000000" opacity="1.000000" stroke="none" 
	d="
M405.966766,261.644867 
	C406.794769,266.718292 408.752106,271.545502 404.461273,275.820679 
	C402.914368,270.289978 404.123199,264.520142 401.871155,259.329620 
	C405.019623,258.220856 405.272095,259.969513 405.966766,261.644867 
z"/>
<path fill="#000000" opacity="1.000000" stroke="none" 
	d="
M194.768097,683.242920 
	C195.986984,685.287231 199.665909,686.787720 196.951630,688.974365 
	C194.795959,690.710999 192.936203,687.857971 191.499069,686.133850 
	C190.450897,684.876343 189.545013,683.487305 188.686157,682.089111 
	C187.984894,680.947388 187.320572,679.535461 188.762390,678.588989 
	C190.219513,677.632446 191.167374,678.936951 192.027939,679.918823 
	C192.894592,680.907776 193.696579,681.953308 194.768097,683.242920 
z"/>
<path fill="#000000" opacity="1.000000" stroke="none" 
	d="
M771.014038,252.984650 
	C765.492065,252.977341 761.598328,249.658264 756.893005,246.740112 
	C761.867981,244.490173 769.090393,247.698944 770.964661,252.653976 
	C770.973022,253.028183 771.000366,252.999191 771.014038,252.984650 
z"/>
<path fill="#000000" opacity="1.000000" stroke="none" 
	d="
M746.094666,244.880692 
	C742.867615,243.804291 739.674255,244.708405 736.998596,243.073425 
	C736.628418,242.847214 736.440979,242.321899 736.175842,241.944901 
	C739.312683,239.148331 745.372864,239.746292 749.770569,243.250214 
	C749.568298,245.469086 747.968018,245.102264 746.094666,244.880692 
z"/>
<path fill="#000000" opacity="1.000000" stroke="none" 
	d="
M849.971924,452.349304 
	C847.152344,451.934998 844.221680,453.253510 842.503601,450.298981 
	C847.073303,447.078217 853.675842,447.458496 856.260559,450.999390 
	C854.727661,453.228180 852.402466,452.102814 849.971924,452.349304 
z"/>
<path fill="#000000" opacity="1.000000" stroke="none" 
	d="
M933.340454,536.480835 
	C933.875671,533.319641 931.855957,530.253296 934.093872,527.513794 
	C937.634521,530.226501 938.045410,536.966309 935.110901,540.911560 
	C932.944763,540.263489 933.324951,538.471741 933.340454,536.480835 
z"/>
<path fill="#000000" opacity="1.000000" stroke="none" 
	d="
M924.519470,498.438477 
	C922.098389,494.612946 918.573730,491.592468 918.550293,486.531769 
	C922.430786,487.900879 927.270203,494.820862 926.725098,497.655243 
	C926.544556,498.594574 925.768433,498.915161 924.519470,498.438477 
z"/>
<path fill="#000000" opacity="1.000000" stroke="none" 
	d="
M903.765015,471.145782 
	C908.120117,470.119720 913.893311,475.661530 913.686890,481.133728 
	C909.376465,478.472107 905.849609,475.730652 903.765015,471.145782 
z"/>
<path fill="#000000" opacity="1.000000" stroke="none" 
	d="
M802.103943,373.073181 
	C803.340698,373.317902 804.137573,374.000763 803.757080,374.824738 
	C801.902771,378.839783 799.428040,382.382996 795.273865,384.570007 
	C795.129272,379.418427 798.542847,376.325378 802.103943,373.073181 
z"/>
<path fill="#000000" opacity="1.000000" stroke="none" 
	d="
M930.029541,513.888184 
	C928.484924,508.875061 928.484924,508.875061 929.340637,506.184784 
	C932.781189,508.174774 934.842102,514.463379 933.564148,519.514587 
	C930.361389,519.058105 930.948120,516.172424 930.029541,513.888184 
z"/>
<path fill="#000000" opacity="1.000000" stroke="none" 
	d="
M865.042603,451.268494 
	C870.060242,450.884949 874.463745,451.642029 878.495789,455.185822 
	C873.673523,457.242523 866.397217,455.005890 865.042603,451.268494 
z"/>
<path fill="#000000" opacity="1.000000" stroke="none" 
	d="
M369.727112,292.031189 
	C374.219727,292.634399 378.361053,293.351349 382.209259,294.017548 
	C382.675049,295.963501 381.906586,296.745422 380.884644,296.819794 
	C377.219238,297.086487 373.633942,296.434235 370.201691,295.181519 
	C368.817352,294.676208 367.987976,293.607727 369.727112,292.031189 
z"/>
<path fill="#000000" opacity="1.000000" stroke="none" 
	d="
M778.883606,396.758087 
	C782.287476,394.360870 784.551208,390.837677 788.693909,389.791260 
	C788.771851,393.235291 782.608826,399.817566 779.802734,399.539032 
	C778.285278,399.388458 777.955811,398.354706 778.883606,396.758087 
z"/>
<path fill="#000000" opacity="1.000000" stroke="none" 
	d="
M727.634705,243.193283 
	C723.766479,242.644073 720.002136,244.965103 715.959595,242.225403 
	C720.423706,238.703964 724.848633,239.718307 729.100647,239.930954 
	C729.954956,239.973648 730.561462,240.730713 730.349487,241.686966 
	C730.087341,242.869400 729.025574,242.987854 727.634705,243.193283 
z"/>
<path fill="#000000" opacity="1.000000" stroke="none" 
	d="
M808.587280,298.217285 
	C807.847412,294.938721 805.017273,292.590729 805.983582,289.145172 
	C810.196228,290.200195 813.303711,297.141388 811.602783,301.387451 
	C809.627441,301.485657 809.361816,299.826111 808.587280,298.217285 
z"/>
<path fill="#000000" opacity="1.000000" stroke="none" 
	d="
M400.836609,283.595093 
	C401.407318,288.279083 395.665863,293.374115 389.871490,292.790100 
	C392.950287,288.626282 396.866119,286.193665 400.836609,283.595093 
z"/>
<path fill="#000000" opacity="1.000000" stroke="none" 
	d="
M932.480225,562.774292 
	C931.501526,563.187683 930.750671,563.112915 930.457581,562.467712 
	C929.464111,560.280273 932.114075,551.452332 934.797791,549.158447 
	C936.088562,554.222778 934.207642,558.372620 932.480225,562.774292 
z"/>
<path fill="#000000" opacity="1.000000" stroke="none" 
	d="
M661.245239,260.265442 
	C663.553528,259.542664 665.364136,257.755219 667.628174,259.274750 
	C666.574341,262.756561 659.714478,265.737305 655.233337,264.527954 
	C656.045776,261.586823 658.790283,261.411011 661.245239,260.265442 
z"/>
<path fill="#000000" opacity="1.000000" stroke="none" 
	d="
M211.684448,698.329163 
	C213.232452,699.507019 214.941315,700.136536 214.826645,702.185669 
	C210.667755,702.940857 204.777695,699.121948 203.330795,694.675964 
	C207.140747,693.301941 208.774872,696.918884 211.684448,698.329163 
z"/>
<path fill="#000000" opacity="1.000000" stroke="none" 
	d="
M681.126404,256.012482 
	C679.131775,256.643829 677.588989,258.168121 675.699341,256.771088 
	C676.924500,253.298325 682.588928,250.515167 687.835266,250.927673 
	C687.527832,255.016235 683.666748,254.419907 681.126404,256.012482 
z"/>
<path fill="#000000" opacity="1.000000" stroke="none" 
	d="
M928.916382,573.728760 
	C927.498718,576.546631 926.262268,579.053162 924.883789,581.478943 
	C924.235046,582.620605 923.290039,583.866272 921.760071,582.854004 
	C920.487061,582.011719 921.185181,580.796265 921.719055,579.779053 
	C923.092224,577.162292 924.484558,574.554932 925.914001,571.968567 
	C926.412781,571.066223 927.186096,570.294861 928.290649,570.798706 
	C929.386658,571.298767 929.209045,572.395325 928.916382,573.728760 
z"/>
<path fill="#000000" opacity="1.000000" stroke="none" 
	d="
M740.586304,641.584229 
	C744.045593,637.097473 748.679016,638.390930 753.233093,639.083740 
	C749.481018,641.771973 745.447632,643.220276 740.586304,641.584229 
z"/>
<path fill="#000000" opacity="1.000000" stroke="none" 
	d="
M810.880066,361.644623 
	C809.785034,363.576019 809.777283,365.974396 807.190247,366.191498 
	C805.757935,362.714844 808.458252,355.870758 812.275085,353.568298 
	C814.154724,356.561890 811.464111,358.778168 810.880066,361.644623 
z"/>
<path fill="#000000" opacity="1.000000" stroke="none" 
	d="
M885.822144,460.331848 
	C885.415222,459.132935 885.522888,458.262268 886.530518,458.067963 
	C889.483948,457.498291 896.405029,462.381775 897.431213,466.224304 
	C892.799622,465.515503 889.485229,462.881775 885.822144,460.331848 
z"/>
<path fill="#000000" opacity="1.000000" stroke="none" 
	d="
M844.600281,708.069885 
	C840.259888,708.861267 836.320374,709.840454 832.183044,708.753479 
	C837.081848,706.222595 842.337830,705.588562 847.886597,705.244446 
	C847.715393,707.720093 846.092041,707.521301 844.600281,708.069885 
z"/>
<path fill="#000000" opacity="1.000000" stroke="none" 
	d="
M874.350098,621.312378 
	C872.600403,621.726685 871.172607,622.732178 869.900513,621.167542 
	C871.728088,617.802612 878.709778,615.337097 882.895386,616.736206 
	C881.362549,620.538513 877.462402,619.874634 874.350098,621.312378 
z"/>
<path fill="#000000" opacity="1.000000" stroke="none" 
	d="
M189.259781,580.165039 
	C187.131119,582.580688 186.660492,585.995056 183.399673,587.054199 
	C182.207581,583.173218 185.862106,577.150879 190.287079,575.437988 
	C191.773758,577.240417 190.195129,578.472778 189.259781,580.165039 
z"/>
<path fill="#000000" opacity="1.000000" stroke="none" 
	d="
M773.220276,637.951721 
	C769.351868,637.889221 765.905518,640.168030 762.260803,638.437195 
	C763.730286,636.150024 772.595764,633.350952 774.392334,634.658936 
	C776.367126,636.096680 775.112915,637.092041 773.220276,637.951721 
z"/>
<path fill="#000000" opacity="1.000000" stroke="none" 
	d="
M178.290894,659.275146 
	C182.625290,662.192322 183.529739,666.593079 184.839691,671.619080 
	C180.288696,669.676086 177.396103,663.929321 178.290894,659.275146 
z"/>
<path fill="#000000" opacity="1.000000" stroke="none" 
	d="
M704.086670,243.269012 
	C705.793701,242.743149 707.209656,241.874054 708.408081,243.472168 
	C706.682434,246.875458 699.866089,249.303421 695.595215,247.862915 
	C697.244080,244.263092 701.009949,244.719604 704.086670,243.269012 
z"/>
<path fill="#000000" opacity="1.000000" stroke="none" 
	d="
M766.075928,404.280579 
	C767.848816,403.579437 769.123657,402.166534 770.923035,403.060913 
	C770.224121,406.921967 764.079407,410.147308 759.037537,409.230988 
	C759.895142,405.585938 763.446167,405.842316 766.075928,404.280579 
z"/>
<path fill="#000000" opacity="1.000000" stroke="none" 
	d="
M188.012665,544.096863 
	C188.517746,546.734680 190.463989,548.820435 189.188461,551.454102 
	C185.580551,549.297852 183.411270,543.494629 184.395691,538.618164 
	C187.540588,539.031128 186.970764,541.934814 188.012665,544.096863 
z"/>
<path fill="#000000" opacity="1.000000" stroke="none" 
	d="
M850.285950,625.919922 
	C848.678467,625.454590 847.612244,624.824585 848.829895,623.447205 
	C850.313782,621.768738 858.829529,621.205505 861.897705,622.827759 
	C858.529419,626.056763 854.158142,624.614868 850.285950,625.919922 
z"/>
<path fill="#000000" opacity="1.000000" stroke="none" 
	d="
M179.063416,599.952820 
	C177.497467,602.574280 178.738205,606.449219 174.857483,607.412659 
	C173.606537,603.203247 175.691803,597.277588 179.246017,594.621887 
	C181.073166,596.303467 179.441788,597.940613 179.063416,599.952820 
z"/>
<path fill="#000000" opacity="1.000000" stroke="none" 
	d="
M174.359604,638.837036 
	C175.242081,643.062073 177.026901,646.848572 176.388123,652.195923 
	C172.066742,648.721252 172.571396,644.589600 171.875412,641.039185 
	C171.623993,639.756592 171.528564,637.733154 174.359604,638.837036 
z"/>
<path fill="#000000" opacity="1.000000" stroke="none" 
	d="
M174.419769,621.550171 
	C173.810913,624.331543 175.414551,627.315857 171.929520,629.571045 
	C169.905884,624.546570 171.028717,620.214905 172.381668,615.308838 
	C175.964828,616.936462 174.370102,619.279236 174.419769,621.550171 
z"/>
<path fill="#000000" opacity="1.000000" stroke="none" 
	d="
M234.675232,710.310059 
	C231.597290,712.684814 225.092468,710.669495 221.643448,706.032410 
	C226.863220,705.665710 230.665375,707.975586 234.675232,710.310059 
z"/>
<path fill="#000000" opacity="1.000000" stroke="none" 
	d="
M829.381531,629.177124 
	C826.790955,628.905273 825.372803,627.506958 827.957031,626.441833 
	C831.446289,625.003723 835.383179,623.885071 840.103027,625.624512 
	C837.203247,629.585754 832.891235,627.786743 829.381531,629.177124 
z"/>
<path fill="#000000" opacity="1.000000" stroke="none" 
	d="
M193.359070,563.582764 
	C192.630630,561.976440 191.323395,560.734863 193.172165,559.031250 
	C196.810074,560.234070 197.464508,563.888428 198.975327,566.750061 
	C199.448654,567.646545 198.628265,568.656311 197.614365,569.069519 
	C196.503204,569.522400 195.686554,569.049011 195.230469,567.999512 
	C194.642014,566.645203 194.111801,565.265564 193.359070,563.582764 
z"/>
<path fill="#000000" opacity="1.000000" stroke="none" 
	d="
M247.048523,715.346680 
	C245.329407,715.116638 243.948242,715.030151 243.434830,712.667969 
	C247.930771,711.026489 251.999329,713.022827 257.097168,713.457764 
	C253.693680,717.762756 250.400665,715.369446 247.048523,715.346680 
z"/>
<path fill="#000000" opacity="1.000000" stroke="none" 
	d="
M181.667145,528.971558 
	C180.525452,524.839478 180.112183,521.053040 181.350861,517.048279 
	C185.005905,520.231201 185.175873,527.802734 181.667145,528.971558 
z"/>
<path fill="#000000" opacity="1.000000" stroke="none" 
	d="
M707.857056,429.128357 
	C671.398560,405.562042 627.214966,424.449982 619.748718,466.560181 
	C619.059204,470.449463 619.410950,474.520172 619.230713,478.504425 
	C619.153748,480.203979 619.960876,482.273346 616.493042,483.547333 
	C613.116577,469.544464 616.428711,456.888947 622.964355,445.055328 
	C635.488647,422.378632 661.455627,410.596069 686.602905,415.787933 
	C700.539429,418.665253 712.178894,425.315186 720.939453,436.296051 
	C720.469604,437.004456 719.999756,437.712860 719.529907,438.421265 
	C714.839783,436.706421 712.272766,431.881104 707.857056,429.128357 
z"/>
<path fill="#000000" opacity="1.000000" stroke="none" 
	d="
M621.142212,498.740112 
	C622.652832,497.196564 623.872253,497.807648 624.515808,499.098816 
	C626.661804,503.404266 629.477661,507.254303 632.243164,511.151917 
	C632.737183,511.848053 632.570618,512.736938 631.218994,514.066528 
	C625.986450,510.351501 622.988159,505.093781 621.142212,498.740112 
z"/>
</svg>